<?xml version="1.0" encoding="UTF-8" standalone="no"?>
<svg
   xmlns:dc="http://purl.org/dc/elements/1.1/"
   xmlns:cc="http://creativecommons.org/ns#"
   xmlns:rdf="http://www.w3.org/1999/02/22-rdf-syntax-ns#"
   xmlns:svg="http://www.w3.org/2000/svg"
   xmlns="http://www.w3.org/2000/svg"
   xmlns:sodipodi="http://sodipodi.sourceforge.net/DTD/sodipodi-0.dtd"
   xmlns:inkscape="http://www.inkscape.org/namespaces/inkscape"
   width="210mm"
   height="297mm"
   viewBox="0 0 210 297"
   version="1.1"
   id="svg8"
   inkscape:version="1.0.2 (e86c870879, 2021-01-15)"
   sodipodi:docname="login.svg">
  <defs
     id="defs2" />
  <sodipodi:namedview
     id="base"
     pagecolor="#ffffff"
     bordercolor="#666666"
     borderopacity="1.0"
     inkscape:pageopacity="0.0"
     inkscape:pageshadow="2"
     inkscape:zoom="0.49497475"
     inkscape:cx="400"
     inkscape:cy="552.92893"
     inkscape:document-units="mm"
     inkscape:current-layer="layer1"
     inkscape:document-rotation="0"
     showgrid="false"
     inkscape:window-width="1920"
     inkscape:window-height="1009"
     inkscape:window-x="0"
     inkscape:window-y="0"
     inkscape:window-maximized="1" />
  <metadata
     id="metadata5">
    <rdf:RDF>
      <cc:Work
         rdf:about="">
        <dc:format>image/svg+xml</dc:format>
        <dc:type
           rdf:resource="http://purl.org/dc/dcmitype/StillImage" />
        <dc:title></dc:title>
      </cc:Work>
    </rdf:RDF>
  </metadata>
  <g
     inkscape:label="Layer 1"
     inkscape:groupmode="layer"
     id="layer1">
    <rect
       style="fill:#00ff00;stroke:#00ff00;stroke-width:0.395188"
       id="rect833"
       width="209.59599"
       height="205.7601"
       x="1.8843122"
       y="89.447815" />
    <path
       id="path863"
       style="fill:#00ff00;stroke:#00ff00;stroke-width:0.999999"
       transform="scale(0.26458333)"
       d="M 391.61523,22.759766 C 203.87988,22.759898 51.690594,112.24974 51.691406,222.64062 c 2.95e-4,32.10134 12.89059,62.42893 35.761719,89.3086 0.06601,-0.0433 0.12899,-0.0877 0.195313,-0.13086 5.543189,-5.7539 11.516967,-11.12761 16.519532,-17.3457 9.35535,-11.62854 18.22259,-23.64316 27.13867,-35.61328 -14.02019,-0.75391 -18.51224,-2.01128 -34.748046,-5.26563 1.624335,-7.08916 -0.10752,-15.96772 4.873046,-21.26758 3.58241,-3.81206 10.50639,0.1596 15.68164,-0.60351 5.22688,-0.77073 10.2956,-2.41805 15.3457,-3.97071 11.09715,-3.41182 16.62063,-7.67611 24.83399,-15.49218 2.39007,-1.8444 8.53526,-8.29839 13.95312,-11.30274 0.96789,-5.16095 2.22349,-10.25632 3.83008,-15.17578 1.39494,-4.27135 2.65968,-8.62382 4.46289,-12.73437 1.1353,-6.60913 2.72118,-12.57605 7.00586,-17.6875 -0.0396,-2.336 0.38751,-3.69096 3.03125,-6.7754 0.31096,-0.36279 0.91096,-0.87247 1.5918,-1.40625 0.0225,-0.23795 0.14387,-0.67822 0.31055,-1.39453 0.79687,-1.17233 1.31282,-1.965 1.79492,-2.70703 -0.18696,-1.72573 -0.32845,-3.21153 -0.33985,-4.00781 -0.0346,-2.41523 0.10849,-4.82443 0.33008,-7.23047 -0.15524,-1.06609 -0.0876,-2.10529 0.32227,-3.10351 0.36047,-3.17766 0.78605,-6.35247 1.06054,-9.53321 3.48225,0.39247 7.43219,-0.2832 11.06055,-0.22461 2.82206,0.0456 5.44986,0.53584 7.51172,2.31836 0.95475,0.82541 1.71187,1.78548 2.33203,2.83985 2.99103,-1.18059 5.43372,-1.27443 10.11133,-1.85157 0.17083,-0.22143 0.32552,-0.4497 0.50391,-0.66797 7.08974,-11.61268 11.39723,-29.257989 31.99414,-11.94335 2.89804,2.4362 1.53765,6.8771 0.46875,11.08789 3.93513,0.0994 7.86859,0.213 11.79882,0.32031 4.33405,0.0192 8.87817,-0.10794 13.5625,-0.0937 8.90871,0.0284 17.81772,0.0196 26.72657,0.0137 3.24314,-3.12222 6.49652,-6.23216 9.77734,-9.31445 0.87857,-0.82541 3.13185,-3.12165 5.12891,-3.77735 0.78075,-1.95021 1.56816,-3.89599 2.38476,-5.82031 5.76209,2.80185 13.86377,3.081 17.79492,7.85742 0.25862,0.0315 0.5167,0.0692 0.77539,0.0996 -0.0863,0.19915 -0.1697,0.41483 -0.25585,0.61524 0.11288,0.16718 0.23639,0.32264 0.33984,0.5 0.78802,1.35098 -0.76983,3.79745 -3.05469,6.38476 1.39578,-0.3746 2.79338,-0.74481 4.19531,-1.0957 2.92074,-0.73103 5.845,-2.26445 8.83204,-1.88672 4.83005,0.61078 9.61982,1.89215 14.15234,3.72656 1.97321,-2.20667 3.99378,-4.11123 6.04687,-5.48437 4.31326,-2.88478 10.25832,-1.58207 15.38672,-2.37305 2.18872,1.67524 4.67391,3.06998 7.03516,4.58203 2.06263,-1.86625 4.20025,-3.64252 6.45117,-5.28515 9.28622,-8.82172 10.58955,-11.607302 24.65235,-16.289067 3.09769,-1.031293 6.52334,-0.3014 9.78515,-0.443359 10.40232,-0.452689 18.27019,-1.552089 28.33594,1.548828 0.80727,0.494207 1.62027,0.979079 2.42187,1.482422 0.65995,0.41441 2.59801,0.819906 1.96289,1.271484 -0.34307,0.243934 -0.74413,0.360195 -1.16992,0.421875 2.22739,1.218718 5.09909,3.424137 8.77735,6.921877 4.62943,-2.40462 3.61215,-5.674365 4.5,3.35351 0.80451,5.87249 1.55074,11.75306 2.41406,17.61719 0.75675,5.14034 1.71141,10.25437 2.53711,15.38477 0.66068,-1.06476 1.3772,-2.24514 2.07422,-3.3711 -0.67062,-3.26038 -1.09761,-6.50665 -0.98438,-9.49804 0.68221,-18.01522 6.53324,-25.49458 16.13086,-40.291019 3.84516,-2.862545 5.14088,-4.031074 6.89063,-4.847657 1.45382,-9.117438 3.05269,-20.255292 12.72656,-23.589843 0.45885,-0.158164 0.89678,-0.222478 1.31836,-0.208985 4.07524,0.130439 6.54128,7.673617 9.94336,10.904297 -0.31413,5.021545 -0.49752,8.005647 -0.70508,11.332031 0.23112,-0.130288 0.388,-0.305398 0.45312,-0.533203 5.10636,-1.253645 7.97511,-2.306023 10.04493,-2.316406 3.95147,-0.01982 4.98967,3.760951 13.11523,17.197266 0.52925,0.875153 -1.6727,1.185145 -2.42773,1.875 -0.33933,0.310026 -0.67005,0.629663 -1.00782,0.941406 0.42174,0.449289 0.7757,0.965991 1.03125,1.572263 5.48135,13.00374 4.11256,13.37537 -1.27148,18.39844 -1.06727,2.17329 -2.54503,4.55502 -4.07617,7.18555 -0.74674,0.84655 -1.47766,1.70721 -2.21094,2.5664 0.77592,1.32553 1.55108,2.6515 2.05859,4.09375 0.66011,1.87585 0.48195,8.25336 0.22461,9.95508 4.14553,2.70115 7.88953,6.09577 11.95117,8.94141 0.21162,0.53891 0.54179,1.04376 0.63477,1.61523 0.22639,1.3927 0.0181,2.84314 0.31445,4.22266 0.66573,3.0987 2.74085,8.37189 3.82032,11.46875 0.19845,0.56932 0.35535,1.03989 0.54492,1.58789 2.69064,-2.47069 5.37705,-4.94684 8.05273,-7.4336 0.89653,-2.26713 2.05155,-5.25649 3.88672,-10.29296 3.35283,-2.30311 5.4305,-4.04462 7.46485,-4.06641 7.46056,-6.49823 7.84153,-8.03143 10.79687,-8.26953 1.5031,-1.40178 3.09594,-2.6903 4.8418,-3.79102 1.51073,-0.95247 0.48125,1.28694 -0.7793,3.81641 3.26493,0.10946 8.25466,0.2458 17.41602,-0.32422 -0.78471,3.59861 -0.2208,7.79342 -2.35547,10.79492 -0.59261,0.83326 -1.21432,1.64206 -1.85938,2.43164 0.79889,3.02091 -0.70046,7.23779 -1.02539,10.51172 -1.95904,19.73948 -8.81216,50.06642 -15.26562,67.36914 -1.48759,3.98846 -3.19296,7.56785 -5.06641,10.89453 -0.0814,2.02379 -0.13879,4.04773 -0.19531,6.07227 0.88185,2.99612 1.43427,6.04162 1.4375,8.86523 8.2e-4,0.84875 -0.14809,1.68615 -0.32031,2.52149 0.10228,-0.48913 0.23181,-0.96627 0.47851,-1.39649 0.1485,-0.25893 0.60045,0.28336 0.69531,0.56641 1.11168,3.32191 2.21074,6.66838 2.87696,10.10742 1.04315,5.38483 0.009,11.39629 -0.6543,16.76953 -0.27595,6.38633 -0.18717,13.61421 -3.67969,18.83399 0.30297,5.04646 0.38459,10.07724 -0.34179,15.0625 -2.63989,18.11794 -8.8814,35.52457 -13.32227,53.28711 -0.19748,0.50233 -0.38723,1.00823 -0.58203,1.51172 2.86649,2.97698 0.76693,6.31664 -3.66992,9.77539 -0.78223,2.12813 -1.56572,4.25563 -2.35938,6.3789 93.0369,-35.66232 154.55014,-97.38026 154.55078,-167.55469 C 731.53987,112.24973 579.35062,22.759896 391.61523,22.759766 Z M 579.34766,383.81641 c 1.20118,-3.26794 2.41462,-6.53087 3.66992,-9.77539 -1.93428,-2.00885 -6.12254,-3.85149 -13.36719,-5.45313 -0.1352,4.71494 -0.50647,9.40363 -1.53711,14.01563 -1.32119,4.94027 -1.87165,7.13717 -2.63086,9.64648 5.24851,-2.80279 10.30094,-5.65505 13.86524,-8.43359 z M 517.85938,68.847656 c -1.14927,3.554782 -1.15906,5.898233 -0.44922,7.460938 0.14315,-2.403289 0.24758,-4.166201 0.44922,-7.460938 z m -53.52149,33.007814 c -1.11596,1.49368 -1.70702,2.89828 -0.39258,3.22461 0.15128,0.0376 0.2885,0.064 0.4375,0.0996 -0.0768,-1.12471 -0.10296,-2.25116 -0.0449,-3.32422 z m 86.85156,2.74219 c -0.26826,0.26309 -0.54132,0.52107 -0.80859,0.78515 3.68419,1.27626 6.00737,2.68249 7.24609,4.25586 -0.29527,-1.05434 -0.79399,-2.01528 -1.57812,-2.76953 -1.32075,-1.27042 -3.02546,-1.88238 -4.85938,-2.27148 z m -93.1582,7.23828 c -5.32755,1.56162 -11.78986,1.11704 -17.0332,1.3457 -3.24186,0.14137 -6.66516,-0.64189 -9.72461,0.43945 -3.41745,1.20788 -8.76602,7.62687 -11.26172,10.375 -3.26621,2.3827 -6.29276,5.04951 -9.19727,7.86133 0.66801,2.4494 1.15567,4.95148 1.51172,7.4336 0.16081,0.0791 0.32437,0.15114 0.48242,0.23632 0.37518,0.0196 0.76294,0.12815 1.16797,0.34961 0.005,-0.008 0.0124,-0.0157 0.0176,-0.0234 0.49327,-0.73239 1.83976,0.34896 2.46289,0.9746 1.28081,1.28605 2.4,2.50491 3.45313,3.69922 0.24694,0.16419 0.49939,0.3198 0.74609,0.48438 0.5819,0.38821 2.04946,1.81946 1.71875,1.20312 -1.36101,-2.5355 -3.6251,-1.49023 -0.55469,-2.28906 4.90353,-0.99319 9.8428,-0.95063 14.78907,-0.74805 0.96995,-1.79402 2.01871,-3.76879 3.26367,-6.22851 3.6935,-0.38086 7.56998,-2.34777 11.08203,-1.14258 3.85299,1.3222 7.05799,4.28846 9.70508,7.46289 3.02018,0.002 6.04035,0.003 9.06054,0.002 -3.11732,-20.32654 -1.54556,-8.97221 -4.01953,-27.08789 -2.80402,-1.24892 -5.44968,-3.01789 -7.66992,-4.34765 z m -44.05469,28.04101 c -0.0517,0.0764 -0.11579,0.15891 -0.16992,0.23633 0.57124,0.36311 1.12942,0.75472 1.67969,1.16406 -0.25012,-0.40967 -0.60085,-0.78853 -1.07813,-1.13086 -0.14623,-0.10488 -0.28942,-0.19177 -0.43164,-0.26953 z m -0.16992,0.23633 c -0.32702,-0.20787 -0.6595,-0.40348 -0.99805,-0.58594 -0.15043,-0.008 -0.29727,0.01 -0.44336,0.0312 0.0178,0.12745 0.0414,0.25553 0.0586,0.38282 0.3042,0.14908 0.70694,0.38972 1.06836,0.59375 0.10264,-0.13957 0.21889,-0.28521 0.31445,-0.42188 z m 142.25977,-21.19922 c -1.82952,0.12642 -3.71215,0.48443 -5.58789,0.81446 0.81487,0.3758 1.67802,0.7455 2.62695,1.10156 0.96188,0.36094 2.05478,-0.47375 2.96094,-1.91602 z m -170.09375,8.45313 c -0.14079,-0.009 -0.28768,-0.005 -0.43946,0.01 -1.01181,0.0954 -2.2329,0.63396 -3.21484,0.66602 0.58157,0.70223 1.70353,1.29572 2.3125,1.99219 0.73166,-0.78531 1.46592,-1.56754 2.19531,-2.35547 -0.23989,-0.19912 -0.52933,-0.29221 -0.85351,-0.3125 z m 199.92773,24.34179 c -0.19759,0.009 -0.40131,0.0311 -0.60937,0.0664 -2.51777,0.42733 -1.71254,2.14372 0.3125,4.40039 0.72292,-0.68079 1.45244,-1.35468 2.17382,-2.03711 0.44212,-0.41825 0.86115,-0.86353 1.28907,-1.29883 -0.90759,-0.75553 -1.93763,-1.18906 -3.16602,-1.13086 z m -22.875,2.22852 c -0.25751,0.0321 -0.62439,0.38645 -0.73437,0.63477 -0.0347,0.0782 -0.067,0.15793 -0.10157,0.23632 0.12481,0.0629 0.2479,0.12916 0.37305,0.19141 0.35214,0.17512 0.88006,-0.63844 0.66992,-0.9707 -0.0484,-0.0765 -0.12119,-0.10251 -0.20703,-0.0918 z m -376.73047,4.38477 c -0.0921,-0.0676 0.0641,0.55241 0.44531,3.47461 0.0166,-1.16348 -0.008,-2.12167 -0.043,-2.99415 -0.2148,-0.18629 -0.35035,-0.44229 -0.40235,-0.48046 z m 208.27539,0.63867 c -2.64846,0.32009 -5.29566,0.64427 -7.93945,0.69726 0.13708,0.2786 0.32342,0.61726 0.43945,0.8711 1.32667,-0.26949 2.6576,-0.51668 4,-0.68555 1.14278,-0.14376 2.313,-0.18268 3.49219,-0.16992 0.006,-0.22864 0.006,-0.47394 0.008,-0.71289 z m 196.38477,0.27929 c -0.39553,0.1378 -0.50455,0.92931 -0.64258,1.61329 0.0569,0.0545 0.1111,0.10951 0.16797,0.16406 0.12436,-0.57664 0.29054,-1.17269 0.47461,-1.77735 z M 171.40625,260.91211 c -20.13924,20.29617 -41.43863,41.2938 -58.32617,57.59961 -3.17703,3.06758 -5.85411,7.29074 -8.79102,10.96094 15.94165,14.79327 35.09797,28.26908 56.88672,40.09179 2.06265,-0.9044 4.14732,-1.76195 6.24219,-2.59765 1.1089,-1.75103 2.18849,-3.51249 3.1543,-5.31641 13.00318,-7.18603 17.65005,-8.55722 27.05664,-16.96094 0.40562,-0.82203 0.90382,-1.61563 1.34765,-2.40429 -0.007,-2.2932 -0.0671,-4.59029 -0.0918,-6.88477 -4.53487,4.03221 -3.31224,2.63334 -9.41602,-4.6543 -4.77549,1.80823 -9.53165,3.67455 -14.22852,5.67774 -14.92323,6.36471 -22.70839,14.51391 -40.79882,1.91601 -3.75989,-2.61832 -1.09371,-9.0975 -1.64063,-13.64648 2.93816,-7.52221 4.74206,-15.59273 8.81445,-22.56641 5.28279,-9.04638 12.42185,-16.88044 18.98829,-25.04297 3.35787,-4.17406 6.73206,-8.33738 10.12109,-12.48828 0.0407,-0.207 0.0853,-0.41152 0.125,-0.61914 0.21889,-1.14472 0.40177,-2.13619 0.55664,-3.06445 z m 27.57031,81.37305 c 0.001,0.39214 0.005,0.78393 0.002,1.17578 0.29944,-0.35432 0.27856,-1.67568 0.0684,-1.29688 -0.0223,0.0403 -0.0477,0.0808 -0.0703,0.1211 z m 0.002,1.17578 c -0.009,0.0106 -0.0158,0.0283 -0.0254,0.0371 -0.45623,0.41963 -0.88963,0.80315 -1.32421,1.1914 -0.4077,0.82624 -0.71828,1.67956 -0.77149,2.58399 -0.0786,1.3366 1.50005,4.97993 1.67383,3.65234 0.32395,-2.47469 0.42992,-4.96731 0.44727,-7.46484 z m -24.51563,-51.39649 c -18.92315,23.42163 -14.30354,15.15991 -22.71484,39.64258 0.75555,0.5423 1.81224,2.43788 2.26757,1.62695 1.6445,-2.9286 0.18678,-7.21385 2.32422,-9.80468 2.42976,-2.94515 6.66388,-3.74756 10.14649,-5.3125 5.05312,-2.27067 10.2397,-4.23711 15.41797,-6.20703 -0.81224,-1.44803 -1.55702,-2.94339 -2.17188,-4.53711 -2.03801,-5.28249 0.22843,-2.00219 -2.02734,-4.9043 -2.84189,-3.57464 -3.3882,-6.99818 -3.24219,-10.50391 z m 313.4375,16.92774 c -0.79445,0.0362 -1.60143,0.0611 -2.43555,0.0684 -0.0221,0.0676 -0.0395,0.12101 -0.0605,0.18554 0.13736,0.088 0.27676,0.1737 0.41211,0.26368 0.10352,-0.0927 0.21875,-0.18431 0.30078,-0.2793 0.16986,-0.19665 -0.006,0.0108 -0.28125,0.29297 0.64198,0.42605 1.30771,0.82897 1.98047,1.22461 0.0282,-0.58519 0.0514,-1.17399 0.084,-1.75586 z m -2.06445,0.53125 c -0.007,-0.004 -0.0129,-0.009 -0.0195,-0.0137 -0.19317,0.17292 -0.42524,0.3419 -0.66211,0.50976 -0.0134,0.0416 -0.0316,0.0934 -0.0449,0.13477 0.22509,-0.15194 0.50196,-0.40085 0.72656,-0.63086 z m 91.46094,1.27539 c -0.50396,0.1711 -1.10613,0.37696 -1.64844,0.55859 -1.90498,10.45928 -3.74883,20.93093 -5.16406,31.46485 -0.18925,1.40863 -0.32454,2.82349 -0.43165,4.24218 2.73263,-9.02321 5.30484,-18.08045 6.66797,-27.38476 0.43166,-2.94637 0.58257,-5.90866 0.57618,-8.88086 z m -36.80079,20.05859 c -1.56327,0.0798 -3.12739,0.15402 -4.6914,0.2168 -0.45794,1.25126 -0.83407,2.92448 -1.93164,2.68945 -0.0937,-0.0201 -0.18589,-0.0454 -0.2793,-0.0664 -0.29432,0.54459 -0.42459,0.81429 -1.07031,1.98632 -0.27737,-0.23979 -0.56568,-0.46975 -0.84766,-0.70507 -0.29,0.44013 -0.56724,0.86763 -0.88281,1.33398 -1.46661,2.16731 -4.18907,3.1689 -6.48438,4.42578 -0.73136,0.40049 -1.11207,0.60996 -1.74218,0.95899 -0.54779,1.61156 -1.11987,3.21428 -1.78711,4.77929 -3.7868,8.88184 -6.93082,21.09927 -18.24024,18.72461 -3.55103,13.11042 -6.89097,26.51778 -12.69531,48.70117 -13.8885,-6.87356 -17.58655,-3.98676 -17.05664,2.86719 8.31854,-1.19862 16.51654,-2.57569 24.58203,-4.12695 1.25532,-2.51321 2.39487,-5.122 3.84961,-7.48047 3.49262,-5.66234 7.32872,-11.11605 10.65625,-16.87695 0.6528,-1.1302 23.32759,-42.10965 25.62305,-48.35157 1.10041,-2.99228 2.07918,-6.02452 2.99804,-9.07617 z m -114.01562,2.60742 c -0.0637,0.0251 -0.12772,0.0492 -0.19141,0.0742 0.0192,0.003 0.0663,0.009 -0.01,0.004 -6.27542,2.46761 -12.67991,4.45848 -19.21485,6.08203 -0.61011,1.67679 -1.22125,3.35343 -1.82617,5.03125 -1.35269,3.75188 -2.67527,7.5185 -3.95703,11.29883 7.88695,-6.85386 16.20134,-13.21269 24.47266,-19.59961 1.25067,-0.96574 2.5672,-1.85891 3.90234,-2.73047 -1.05802,-0.0553 -2.11051,-0.10109 -3.17578,-0.16016 z m 35.69336,0.41407 c -0.17855,0.19453 -0.35661,0.38945 -0.53516,0.58398 -0.40018,0.5022 -0.8041,1.007 -1.22851,1.52539 5.37921,2.09644 10.66799,3.99618 14.23046,4.125 0.0588,-0.0547 0.0741,-0.11518 0.008,-0.18359 -0.10258,-0.10588 -0.21972,-0.19844 -0.32617,-0.30078 -4.41181,-0.95117 -6.54271,-1.94056 -8.79102,-5.75 -1.11905,6.8e-4 -2.23826,-4.6e-4 -3.35742,0 z m -195.54492,7.36132 c -0.78538,0.43307 -1.58053,0.85969 -2.36914,1.29102 -0.0898,0.17228 -0.19872,0.34349 -0.34375,0.51367 -0.54368,0.63791 -1.10221,0.78188 -1.66211,0.58008 -7.47818,4.06274 -15.08137,8.04669 -22.72657,11.93359 6.09986,18.53523 15.64872,40.68918 30.66211,40.70899 6.50892,4.99978 6.34381,-3.65447 9.86914,-4.375 8.14176,-1.66405 16.48685,-2.09767 24.73047,-3.14649 6.11336,-0.0461 12.60349,1.97545 18.33985,-0.13867 6.48222,-2.389 11.30955,-8.00015 16.40429,-12.66601 3.57321,-3.27242 7.55077,-6.48182 10.10547,-10.56446 1.96115,-6.753 4.00959,-13.48384 6.29492,-20.1289 -14.33111,0.0758 -28.66649,-0.0734 -42.99609,-0.084 -8.73413,-0.45193 -17.47681,-0.77269 -26.20312,-1.35547 -6.34394,-0.42366 -13.57572,-0.68792 -20.10547,-2.56836 z m 111.0664,2.82422 c -1.05381,2.69111 -2.05836,5.40117 -2.99414,8.13672 -0.27964,1.1875 -0.5818,2.37001 -0.89648,3.54883 2.27617,-3.94011 3.9128,-6.75659 6.10937,-10.55664 -0.72985,-0.23936 -1.47573,-0.61753 -2.21875,-1.12891 z m 98.44727,0.375 c -10.12585,0.008 -24.29501,13.49669 -34.50781,8.47852 -0.81766,-0.40176 -1.62206,-0.87917 -2.4043,-1.41016 -0.29355,0.21237 -0.58875,0.42237 -0.87695,0.64063 -8.1591,6.17878 -16.49984,12.1626 -24.1504,18.96094 -6.83472,6.07337 -9.93783,15.70456 -17.30859,21.27929 -0.7803,0.01 -1.57501,0.0709 -2.37695,0.1543 -0.0935,0.54426 -0.41607,0.79207 -1.14453,0.55078 -0.25423,-0.0842 -0.49355,-0.19058 -0.73438,-0.29492 -5.57644,0.84273 -11.42507,2.61216 -16.35742,1.25781 -2.50734,5.64714 -5.17114,11.21248 -9.27734,16.00977 -7.53101,1.10698 -15.43874,5.92522 -22.5918,3.32226 -4.07584,-1.48316 -3.36757,-8.32495 -3.04688,-12.65039 0.0266,-0.35904 0.0749,-0.71588 0.10743,-1.07422 -15.08057,11.116 -14.83128,9.13458 -34.81836,9.19727 -5.60608,0.23614 -11.3184,-0.41161 -16.81641,0.70898 -3.41663,0.69638 -5.63524,1.56111 -7.25586,2.44531 34.22554,6.81101 70.89608,10.50388 109.0332,10.50391 26.33141,-6e-5 51.9632,-1.76005 76.57422,-5.0918 0.71318,-2.87866 1.42004,-5.75813 2.10743,-8.64257 7.38251,-28.18916 11.17906,-43.76327 16.62695,-62.74414 -1.59273,-0.19251 -3.18181,-0.42743 -4.76953,-0.66993 -0.49069,0.14739 -0.74133,0.2186 -1.24805,0.3711 -0.54479,-0.35067 -1.11432,-0.61197 -1.70117,-0.81641 -1.00719,-0.15218 -2.01439,-0.30384 -3.02344,-0.4375 -0.0126,-0.0166 -0.0265,-0.0323 -0.0391,-0.0488 z m 73.43554,16.6836 c -7.74059,14.78474 -20.11833,37.08177 -20.65234,37.99804 -1.59836,2.74264 -3.08517,5.23174 -4.52539,7.57032 5.71303,-1.42694 11.3389,-2.95216 16.88672,-4.55469 0.66503,-2.00211 1.35307,-3.99326 1.7207,-5.86719 0.77424,-3.94662 2.50285,-7.64555 3.64453,-11.50195 0.7194,-2.42997 1.29132,-4.90109 1.9375,-7.35156 0.88765,-5.37499 0.98407,-10.83017 0.98828,-16.29297 z m -328.13281,3.41601 c -10.77002,5.25012 -21.46918,10.30835 -31.81445,15.08008 -1.38569,0.63914 -2.76763,1.29481 -4.15039,1.94727 17.8394,8.01297 37.06035,15.01707 57.42969,20.85351 -12.02029,-13.36946 -16.93739,-24.27974 -21.46485,-37.88086 z m 139.74414,39.91602 c -0.0241,0.18779 -0.055,0.37457 -0.0781,0.5625 -0.10262,0.83346 2.83239,1.7801 2.19922,1.22851 -0.69765,-0.60776 -1.41019,-1.19902 -2.1211,-1.79101 z" />
    <path
       id="path886"
       style="fill:#00ff00;stroke:#00ff00;stroke-width:0.999999"
       transform="scale(0.26458333)"
       d="m 122.70508,213.49219 -26.792971,11.58398 c -4.66679,6.56356 -9.473624,13.10334 -13.175781,20.27539 -1.299303,2.88284 -3.802867,6.87643 -2.847656,10.26563 0.289247,1.02634 0.615253,3.19916 1.59375,2.77539 1.976499,-0.856 3.72738,-1.58899 5.378906,-2.26758 -0.218325,0.94951 -0.435802,1.9159 -0.589844,2.59375 -0.380613,3.84402 -1.492269,9.08895 0.923828,12.63477 0.430107,0.63121 0.946818,2.01626 1.607422,1.63281 4.158717,-2.41396 8.146839,-5.0953 12.087886,-7.85547 0.78685,0.61418 1.62175,1.10046 2.97852,1.51562 1.26634,0.38749 3.90492,0.58317 5.16797,-0.0918 3.67618,-1.96462 6.58061,-3.47767 9.11133,-4.78125 0.0981,0.0177 0.19681,0.033 0.29492,0.0508 10.27026,1.73749 20.88968,0.18963 30.35352,-4.07422 0.0926,-0.0598 0.29681,-0.14473 0.46484,-0.2207 -0.73217,-5.35511 9.31054,-12.14662 17.76367,-19.69532 1.22593,-0.93411 2.43642,-1.88992 3.65234,-2.83789 -2.32651,-1.30286 -5.1242,-2.14269 -7.22461,-2.96679 -5.51272,-2.13513 -11.22236,-3.68784 -16.82031,-5.57618 -2.80142,-0.94498 -7.80961,-2.89751 -10.82031,-3.45117 -1.70582,-0.3137 -3.4571,-0.28763 -5.18555,-0.43164 -1.78167,0.3614 -3.61756,0.51366 -5.34375,1.08399 -1.64038,0.54198 -3.2095,1.32123 -4.67968,2.22851 -3.08935,1.9065 -6.19164,3.79682 -9.28907,5.69531 -0.41185,0.20939 -0.8236,0.41904 -1.23633,0.62696 3.61766,-6.60412 8.10859,-12.7047 12.62696,-18.71289 z m -36.675783,38.45898 c 0.185036,0.17922 0.382795,0.38594 0.597656,0.625 -0.519475,0.26813 -1.033507,0.54719 -1.558594,0.80469 -0.259407,0.12721 -0.385349,-0.19847 -0.398437,-0.61524 0.452488,-0.2724 0.907452,-0.54108 1.359375,-0.81445 z" />
    <path
       id="path934"
       style="fill:#00ff00;stroke:#00ff00;stroke-width:0.999999"
       transform="scale(0.26458333)"
       d="m 523.18555,42.125 c -3.8344,-0.124103 -9.03924,5.303954 -23.83789,17.857422 -1.56726,1.329494 0.0337,4.110871 0.0488,6.166016 -0.0466,2.929107 -0.0787,5.857939 -0.12109,8.787109 -4.57058,2.587959 -9.13401,5.185689 -13.67969,7.816406 -2.15889,-0.874204 -4.66648,-1.560256 -7.72265,-2.150391 -1.05203,-0.319438 -2.10989,-0.619447 -3.15625,-0.957031 -0.75931,-0.244989 -1.56418,-1.179858 -2.25977,-0.789062 -0.029,0.0163 -0.0569,0.03446 -0.0859,0.05078 -6.32409,-5.226754 -1.70177,-5.747645 -14.60156,6.910156 -0.6594,-0.575803 -1.29526,-1.183868 -2.05078,-1.61914 -5.75497,-3.315561 -16.88436,-2.206461 -23.2207,-1.121094 -11.51082,3.565326 -9.60504,2.724868 -27.70508,18.310548 -0.12741,0.10971 -0.14555,0.28124 -0.0879,0.49414 -1.61025,-0.30202 -3.25001,-0.46915 -4.94922,-0.37305 -8.13517,-0.005 -16.26928,-0.006 -24.4043,-0.0625 -5.34898,-0.0868 -10.70184,-0.0995 -16.05078,-0.004 -4.84004,0.15382 -9.68794,0.62304 -14.37305,1.91015 -5.32616,1.44394 -10.51481,3.50903 -16.15039,2.9336 -4.83502,-0.68728 -6.21771,-4.91262 -7.23242,-9.210941 -2.62967,-7.092261 -5.24767,-7.448683 -12.41992,-6.486328 -8.87337,1.843301 -17.2592,5.830682 -24.80859,11.039059 -1.79231,-0.41329 -3.56927,-0.89048 -5.28907,-1.58984 -6.01635,-1.861304 -11.81445,-4.489552 -18.24804,-4.373048 -6.11337,0.08164 -12.30884,-0.10557 -18.31446,1.220704 -5.31639,3.091272 -10.64985,6.154574 -15.9707,9.238284 -6.60464,2.31068 -13.1941,4.8588 -19.47461,7.99804 -0.0271,-0.0173 -0.055,-0.0314 -0.082,-0.0488 -27.57341,14.84278 -29.51097,10.15528 -25.88672,18.33789 -4.09147,4.55593 -8.38349,8.96296 -12.26562,13.70312 -3.79088,2.15077 -7.53464,4.37534 -11.1543,6.80078 -1.93941,1.29956 -0.40154,5.49682 0.0957,6.69141 0.057,0.13682 0.1268,0.26651 0.18555,0.40234 -0.67423,0.79442 -7.79651,9.17886 -8.20703,9.82422 -4.74954,7.46657 -6.12348,16.53671 -7.00196,25.12891 -0.13629,2.26327 -0.30088,4.52618 -0.4082,6.79101 -0.0478,1.00975 -0.081,1.80681 -0.11328,2.60938 -0.51623,-0.74745 -0.70221,-1.04221 -1.69531,-2.46289 -0.55,-0.78679 -1.02826,-1.46396 -1.45117,-2.03516 0.17128,-0.92124 -0.01,-1.16426 -0.67383,-0.84961 -0.20868,-0.22874 -0.37899,-0.37941 -0.45703,-0.33789 -27.42658,14.59028 -25.94549,5.61222 -26.91407,18.72656 -0.96071,8.25835 -3.12097,16.31217 -4.53125,24.51563 -1.98565,9.30736 -1.8012,18.75159 -1.5664,28.19141 -1.3634,1.60093 -1.66028,4.21735 -3.07031,9.1914 -1.02108,3.60938 -1.953097,7.3227 -3.107426,10.93945 -6.595795,1.71712 -9.129772,3.01198 -7.404297,7.52539 -0.159852,0.0938 -0.281614,0.17101 -0.443359,0.26563 -1.13167,0.66199 -1.891519,1.86451 -2.533204,3.00781 -0.269401,0.48 -0.510872,0.97558 -0.746093,1.47266 -0.825883,-0.0605 -1.649549,-0.0895 -2.464844,-0.0273 -13.88106,-1.01419 -31.75597,7.31029 -30.611328,21.58398 0.691128,6.48451 2.691181,12.30663 9.832031,13.7168 1.843515,-0.31003 3.655567,-0.72015 5.458984,-1.15821 -1.077568,1.98364 -2.227349,3.92256 -3.539062,5.76172 -1.854558,2.50953 -3.534677,5.15926 -5.564453,7.5293 -1.882216,2.19776 -8.88897,7.03602 -6.138672,6.13672 0.215783,-0.0706 0.425545,-0.15382 0.638672,-0.23047 -3.505062,1.98786 -6.95955,4.056 -10.296875,6.3125 -0.66505,0.44967 0.03437,2.03262 0.800781,2.27148 1.736712,0.54124 3.844174,0.53189 5.449219,-0.32422 0.87895,-0.46882 1.751402,-0.95053 2.625,-1.42968 16.842764,-6.82813 38.599577,-9.36394 46.968746,-27.27539 0.0311,-0.51651 0.0389,-0.97571 0.0625,-1.47657 2.17067,-1.08444 4.33833,-2.17059 6.5,-3.26953 2.80445,4.60001 5.75713,9.0768 9.76172,12.81836 0.87336,0.3137 1.71134,0.75837 2.6211,0.94141 0.61752,0.12423 2.93991,0.01 3.60351,-0.36719 1.24281,-0.7053 2.47929,-1.42161 3.71875,-2.13281 0.43687,-0.20365 0.98161,-0.46313 1.26563,-0.58789 5.02669,-1.82196 10.35216,-0.32721 15.46679,0.37695 6.16413,1.08651 12.08933,-0.0414 18.03321,-1.62109 12.03695,-3.96181 9.54217,-2.93533 30.00586,-17.40235 0.99693,-0.70479 1.93562,-8.71849 1.96093,-8.8789 1.27462,-8.07712 0.62826,-2.91072 1.4668,-10.92578 0.64822,-4.78631 0.25525,-9.58802 -0.0586,-14.37696 -0.11063,-1.68833 -0.48874,-3.38137 -0.33594,-5.0664 0.17983,-1.98296 1.83606,-5.88161 2.57422,-7.77344 2.64042,-6.42014 0.62331,-7.8015 -2.9043,-12.7793 -4.69334,-5.62099 -6.64326,-8.9439 -8.21094,-16.14453 -0.68118,-4.02266 -0.98129,-8.14241 -1.95117,-12.08008 0.21904,-0.8242 0.40153,-1.71202 0.53321,-2.6914 0.0973,-0.7237 0.3153,-8.83451 0.41601,-9.26758 0.43136,-1.85492 1.43255,-3.53017 2.14844,-5.29492 5.05174,-10.12546 12.8776,-17.46265 16.76953,-28.18946 0.19242,-1.81919 0.6385,-4.63336 0.28516,-6.51172 -0.57191,-3.04006 -2.55699,-6.7624 -4.82227,-10.38671 0.39474,-0.40431 0.65863,-0.67388 1.11914,-1.14454 7.32145,-6.50384 11.08584,-11.83857 13.66797,-21.2539 0.19001,-1.16975 0.2786,-2.33056 0.29883,-3.48633 1.72144,0.80076 3.56315,1.62996 5.26953,1.98828 1.8771,0.39419 4.6851,0.5048 6.46289,-0.49414 27.6142,-15.51647 21.54129,-8.30693 30.10742,-19.44141 0.33162,-0.52139 0.67077,-1.03773 1.01563,-1.55078 0.10083,-0.0168 0.20409,-0.0295 0.30468,-0.0469 2.79521,-0.73709 5.43491,-1.69506 7.98438,-2.80469 11.03058,-1.95349 25.842,-5.62945 29.57031,-12.59766 0.006,0.0171 0.0118,0.0401 0.0176,0.0566 1.07087,5.35718 3.55891,9.35501 8.57617,11.60938 5.849,1.4912 11.64738,-0.10785 17.28906,-1.65625 4.52778,-1.35911 9.19687,-1.98581 13.89454,-2.3418 5.37961,-0.27636 10.76796,-0.20208 16.15234,-0.27343 8.17012,-0.0291 16.33962,-0.0151 24.50976,-0.0117 5.78355,-0.40125 10.96654,1.82289 16.34375,3.46679 5.62594,1.5536 11.51632,1.56721 17.3086,1.67774 6.25096,0.10378 12.50238,0.0837 18.7539,0.10351 3.88085,-0.0946 8.13162,-0.71496 12.28321,-1.8789 7.60829,4.25788 15.05439,8.83041 22.60937,13.16406 -3.07295,-1.14967 -0.31438,0.0684 1.79688,1.21094 0.24712,0.98639 0.50864,1.59998 0.87109,1.44531 0.11436,-0.0488 0.23467,-0.0941 0.34961,-0.14258 -0.37368,-0.20156 -0.71121,-0.56257 -0.4668,-0.7207 0.0408,-0.0264 0.0822,-0.0518 0.12305,-0.0781 0.37408,0.22564 0.68383,0.43208 0.84766,0.59375 2.62213,-1.08908 5.34166,-2.08922 8.04297,-3.05859 0.23864,1.33397 0.45636,2.67154 0.59375,3.88672 0.1217,1.07561 -0.81701,3.54895 0.2207,3.24023 0.20103,-0.0598 0.3584,-0.10153 0.55664,-0.16015 -0.0177,0.20821 -0.0449,0.41368 -0.084,0.61523 0.74615,-0.41689 1.49439,-0.83187 2.24804,-1.23633 7.59881,-2.1922 13.10839,-3.50933 16.89258,-4.30273 0.41034,0.52468 0.91071,0.99238 1.54492,1.36914 0.86525,0.514 1.91921,0.60527 2.87891,0.9082 4.89972,-0.16167 9.72092,-1.01745 14.53711,-1.93359 1.97476,8.22269 4.51472,16.30104 7.32422,24.28711 0.78379,1.71141 1.37054,3.52825 2.35156,5.13476 0.84658,1.38641 1.5544,4.31295 3.08594,3.77149 5.42211,-1.91694 27.05776,-8.93873 32.01953,-20.04883 0.17383,-0.38922 0.3222,-0.78847 0.46093,-1.19141 3.63514,2.10928 7.54098,3.77428 11.57813,5.10352 -1.13664,1.42694 -2.00934,3.0099 -2.52148,4.7793 -0.9498,3.2815 -0.90436,6.80405 -1.54688,10.13867 -1.49922,9.10011 -4.25311,18.16806 -3.3125,27.47265 0.3617,1.81746 0.60451,3.66314 1.08399,5.45313 1.54119,5.75393 4.29187,11.08781 6.86328,16.48828 -2.28535,3.04732 -4.50729,6.13629 -6.30664,9.46484 -1.35115,2.49945 -1.84543,4.33681 -2.72852,6.98438 -0.33174,1.26697 -0.55987,2.38969 -0.70508,3.41797 0.55467,0.85103 1.0652,1.81089 1.52735,2.86914 1.26039,-1.21377 2.94558,-1.90078 4.89648,-1.93555 3.94782,-0.0703 8.93913,2.47311 13.47852,8.44336 8.29228,10.90609 7.77399,24.85019 11.66796,37.3125 0.73301,2.34592 1.63925,4.63413 2.45899,6.95117 6.024,11.10141 2.70201,24.5632 7.90234,35.82813 0.25337,0.54884 0.47704,1.08716 0.67969,1.61719 7.72258,4.63387 15.48012,9.22678 23.19141,13.89453 1.82801,1.73039 3.65764,3.45926 5.48437,5.1914 16.66836,16.2953 33.49206,32.4297 50.625,48.23633 3.64551,3.36329 11.39484,10.88777 16.42188,14.19531 0.67763,0.44584 1.5393,0.51437 2.30859,0.77149 6.52973,-5.64756 14.15024,-10.27156 20.125,-16.43946 0.18412,-0.0968 0.36822,-0.1934 0.55273,-0.28906 -0.0635,-0.0258 -0.13064,-0.0583 -0.19531,-0.0859 1.04663,-1.10398 2.04667,-2.25176 2.9707,-3.4707 1.41854,-1.87109 -2.12803,-4.19594 -3.39648,-6.17187 -5.89905,-9.18927 -14.01622,-16.6441 -21.96094,-24.00977 -2.14507,-1.6619 -4.1806,-3.47491 -6.43554,-4.98437 -4.38698,-2.93662 -8.99318,-5.53194 -13.46485,-8.33789 -15.3606,-9.63877 -30.75969,-19.20943 -46.15234,-28.79297 -10.30358,-9.34838 -20.61608,-18.69169 -30.97852,-27.97657 0.0243,-0.0132 0.0479,-0.0278 0.0723,-0.041 -0.0142,-0.61784 -0.0168,-1.23566 -0.0293,-1.85352 0.46328,-2.25633 0.92391,-4.51322 1.38672,-6.76953 3.16925,-10.81381 5.61186,-21.79695 8.2793,-32.74219 1.20415,-6.27234 3.22872,-12.3313 5,-18.45312 0.51171,-1.76849 0.86682,-3.58651 1.48047,-5.32227 1.01261,-2.86437 2.7382,-5.91264 4.15039,-8.59375 3.64127,-7.79029 7.00168,-15.85 9.02539,-24.22265 1.69205,-8.04855 2.44425,-16.34115 2.02929,-24.55664 -0.11088,-0.74458 -0.20986,-1.60816 -0.35351,-2.47266 3.5406,-2.50772 7.26348,-5.5291 8.17969,-8.87695 0.2211,-0.80749 0.0405,-1.67477 0.0605,-2.51172 -0.30878,-0.65176 -0.50167,-1.37311 -0.92773,-1.95508 -1.52837,-2.08766 -9.39209,-4.27617 -11.69141,-4.86133 -10.61605,-2.57531 -20.79989,-6.51864 -31.37304,-9.24609 -9.73221,-2.34542 -18.86912,-6.33479 -25.53711,-14.11524 -6.12662,-9.07768 -8.00259,-16.55185 -7.59961,-27.589839 -0.50495,-11.590266 -1.44735,-23.312756 -6.0586,-34.113282 -0.97678,-1.431734 -1.62526,-3.153689 -2.92968,-4.294921 -0.154,-0.134735 -0.33705,-0.271311 -0.51563,-0.40625 3.08319,-2.595067 4.17806,-3.509416 -0.50586,-0.339844 -0.76059,-0.475829 -1.61592,-0.800418 -2.3457,-0.46875 -3.90889,1.776436 -7.29441,3.219091 -10.42774,4.578125 -3.01003,-3.465728 -6.24951,-6.75564 -9.35742,-10.105469 -5.19207,-6.073539 -7.34582,-9.528475 -10.32812,-9.625 z m 199.92968,352.78906 c 0.44475,0.18082 0.87102,0.33196 1.25,0.41406 0.8476,0.1838 1.17783,-1.27229 1.76758,-1.9082 -1.0149,0.472 -2.01809,0.97596 -3.01758,1.49414 z M 476.04688,142.20703 c -0.27485,0.15355 -0.55448,0.29954 -0.82813,0.45508 -0.19019,0.10806 0.53517,0.38521 0.62891,0.1875 0.097,-0.20445 0.15634,-0.42121 0.19922,-0.64258 z m -9.33008,-4.52344 c -0.16674,0.0693 -0.33829,0.13521 -0.50391,0.20508 0.18411,0.0993 0.37189,0.17056 0.51172,0.13867 0.20192,-0.046 0.16598,-0.17355 -0.008,-0.34375 z m 35.2207,-77.673824 c 0.0142,-0.0014 0.024,0.0055 0.0371,0.0059 -0.234,0.122779 -0.46428,0.254564 -0.69922,0.375 -0.22389,0.114756 0.34388,-0.349256 0.66211,-0.380859 z m -55.31836,34.845703 c 0.16253,0.02622 0.31409,0.141442 0.46094,0.283203 -0.15165,0.09404 -0.30118,0.191617 -0.45313,0.285156 -0.16705,0.102879 -0.365,-0.517924 -0.17383,-0.5625 0.057,-0.01331 0.11185,-0.01436 0.16602,-0.0059 z m -36.91797,5.923831 c -0.92961,0.53312 -1.85422,1.07598 -2.78906,1.59961 -0.0124,-0.003 -0.0247,-0.007 -0.0371,-0.01 0.37765,-0.2616 1.64045,-1.06757 2.15625,-1.41406 0.22044,-0.0646 0.44795,-0.11408 0.66992,-0.17578 z m 52.21875,4.34961 c 1.61703,0.70175 2.90061,1.36174 3.76172,2.30859 -1.27037,-0.70724 -2.54319,-1.40946 -3.81641,-2.11133 0.0222,-0.0677 0.034,-0.13027 0.0547,-0.19726 z m -222.77344,23.04492 c -0.46001,0.42957 -0.9117,0.86582 -1.35156,1.31055 -0.0278,-0.0116 -0.0562,-0.0236 -0.084,-0.0352 -0.5058,-0.26138 -1.02157,-0.50681 -1.53321,-0.75781 0.99104,-0.16561 1.98074,-0.33808 2.96875,-0.51758 z m 7.52344,1.02929 c -1.47397,0.85613 -2.74486,1.58145 -3.78515,2.16016 -0.21724,-0.0473 -0.43465,-0.0902 -0.65039,-0.15039 1.34653,-0.70016 2.88745,-1.41727 4.43554,-2.00977 z m 3.31055,0.2129 c 0.0986,0.0109 -1.88809,1.34615 -2.69141,1.67187 -0.29039,0.11774 -0.57655,0.20511 -0.86328,0.2793 1.09151,-0.60912 2.19648,-1.22323 3.37695,-1.86719 0.10872,-0.0593 0.16366,-0.0855 0.17774,-0.084 z m -63.38477,18.49023 c 0.675,2.23639 1.23631,4.49098 1.51758,6.76953 -1.24995,-1.87196 -2.45131,-3.77079 -3.43359,-5.77344 0.64536,-0.31745 1.28161,-0.65562 1.91601,-0.99609 z m 343.14453,17.26563 c -0.85669,0.64678 -2.93757,1.74622 -2.19335,1.29296 0.72432,-0.44117 1.46331,-0.86044 2.19335,-1.29296 z m 59.94141,11.35546 c 0.13989,0.0511 0.15484,0.2827 0.0957,0.61719 -0.0565,0.0354 -0.1135,0.07 -0.16992,0.10547 0.0224,-0.24096 0.0488,-0.48201 0.0742,-0.72266 z m 2.89453,4 c 0.007,0.0267 0.0129,0.0534 0.0195,0.0801 -1.01826,0.61452 -2.07924,1.2405 -3.19531,1.88477 -9.4e-4,-0.0489 -6.5e-4,-0.0976 -0.002,-0.14649 1.10058,-0.64901 2.15979,-1.25436 3.17773,-1.81836 z m -417.71679,7.30664 c 1.01728,1.88823 1.90443,3.77272 2.4746,5.55274 -1.27212,0.7608 -2.54541,1.51897 -3.81445,2.28516 -0.40875,-2.12638 -0.82541,-4.25135 -1.24414,-6.375 0.87304,-0.49494 1.78602,-1.01641 2.58399,-1.4629 z m -61.66407,27.22071 c 0.0157,-0.005 0.024,0.003 0.0391,0 -0.15966,0.0845 -0.29557,0.16317 -0.45704,0.24804 -0.14856,0.0781 0.16992,-0.17006 0.41797,-0.24804 z m 416.125,8.39648 c -4e-5,0.11589 0.002,0.23177 0.002,0.34766 0.20879,0.23702 0.41047,0.49888 0.61328,0.75976 0.0933,-0.11883 0.18867,-0.23489 0.28515,-0.34765 -0.29559,-0.25764 -0.59823,-0.50829 -0.90039,-0.75977 z m -32.20508,0.90821 c -0.18422,0.0705 -0.36851,0.14037 -0.55273,0.21093 0.14451,5e-5 0.28909,0.002 0.43359,0.002 0.0394,-0.0712 0.0797,-0.14182 0.11914,-0.21289 z m -9.40234,3.35937 c -0.9567,0.29073 -1.9141,0.56374 -2.87305,0.79883 1.79637,1.24403 3.63425,2.37491 5.5,3.43945 0.13628,-0.84249 -0.63116,-2.1915 -2.62695,-4.23828 z M 159.29492,254.8418 c 0.0359,0.22557 0.0762,0.45002 0.11133,0.67578 -6.43658,4.2109 -11.47556,8.68701 -11.74219,8.87304 -0.90913,0.63459 -1.13592,1.79022 -1.33398,2.96876 -0.23865,-0.9248 -0.47521,-1.85028 -0.71289,-2.7754 3.72471,-2.05251 7.73876,-5.55118 13.67773,-9.74218 z m 368.50196,8.14843 c -3.23013,0.80473 -6.16564,2.10002 -4.26563,1.48047 1.67891,-0.54745 3.09176,-0.99342 4.34375,-1.35351 -0.0266,-0.042 -0.0516,-0.0849 -0.0781,-0.12696 z m -5.34961,13.73829 c 0.2295,0.65277 0.47727,1.2244 0.76171,1.59179 0.18986,0.24521 0.49525,0.32911 0.8418,0.35742 -0.44493,-0.55873 -0.978,-1.20999 -1.60351,-1.94921 z m 9.49414,2.82226 c -1.57815,0.33892 -2.64082,0.75634 -3.36329,1.15039 0.64435,0.26465 1.27014,0.53212 1.93946,0.80078 0.40898,-0.10038 0.92796,-0.24676 1.40039,-0.37109 -0.087,-0.49994 -0.0543,-1.02943 0.0234,-1.58008 z m 42.66797,12.36133 c -0.0104,0.0274 -0.0167,0.0546 -0.0273,0.082 -0.22151,1.01746 -0.30064,1.21018 0.4668,1.38281 -0.15377,-0.48964 -0.29099,-0.97742 -0.43945,-1.46484 z M 82.707031,305.92188 c 0.421503,-0.0249 0.944609,0.0291 0.714844,0.16992 -0.732827,0.44898 -1.413617,0.84761 -2.121094,1.27148 0.165144,-0.66414 0.463259,-1.21555 1.050781,-1.39062 0.08608,-0.0257 0.214968,-0.0425 0.355469,-0.0508 z m 86.078129,11.67187 c -0.27759,2.49056 -0.50983,4.47947 -1.01368,6.9375 -0.20396,-0.0274 -0.40901,-0.0617 -0.61328,-0.0918 0.0247,-1.55664 -0.0368,-3.35493 -0.11132,-5.41211 0.55916,-0.47405 1.14095,-0.95283 1.73828,-1.43359 z m 402.48046,3.01758 c -0.44102,2.06196 -0.70264,4.165 -0.95507,6.33984 0.0344,0.72886 0.0984,1.45866 0.15429,2.1875 -0.30893,0.72842 -0.63073,1.45192 -0.96875,2.16992 -0.67092,2.26142 -0.90424,3.89717 -0.79687,5.04883 0.006,-0.0107 0.0122,-0.0213 0.0469,-0.041 0.42359,-0.24146 0.81598,-0.4459 1.22657,-0.67188 -0.0249,0.0609 -0.0392,0.12559 -0.0664,0.18555 -0.14552,0.32098 -1.11338,0.58816 -1.20508,0.54297 0.46443,4.81238 7.18323,0.77991 15.03906,-4.33008 -1.12994,-2.94765 -1.66923,-4.80435 -2.45703,-9.35156 -2.8659,1.06773 -6.50789,0.57234 -10.01758,-2.08008 z M 141.08789,338.7168 c -0.0354,0.13832 -0.0639,0.27726 -0.10742,0.41406 -0.15466,0.48624 -1.85186,0.84032 -1.42774,0.55664 0.50189,-0.33569 1.02367,-0.64706 1.53516,-0.9707 z m -19.25977,0.74804 c 0.0116,0.003 0.0236,0.003 0.0352,0.006 -1.03554,0.58682 -1.09644,0.61395 -0.0352,-0.006 z m -47.558589,6.02735 c 0.04715,-0.005 0.0775,0.002 0.101563,0.0156 -0.55456,0.21377 -1.112241,0.41432 -1.664063,0.64258 -2.33114,1.34035 -4.687206,2.63941 -7.050781,3.92773 2.701595,-1.73126 5.427695,-3.41196 8.404297,-4.52929 0.08648,-0.0325 0.155504,-0.0506 0.208984,-0.0566 z" />
  </g>
</svg>
